# xmcd
#
# Track frame offsets: 
#        150
#        13348
#        26886
#        38915
#        54266
#        68690
#        83838
#        98269
#        112429
#        126873
#        140192
#        155608
#        167946
#        180347
#        193921
#        208101
#        220049
#        234246
#        248661
#        261532
#
# Disc length: 3641 seconds
#
# Revision: 1
# Processed by: cddbd v1.5.2PL0 Copyright (c) Steve Scherf et al.
# Submitted via: ExactAudioCopyFreeDBPlugin 1.0
#
DISCID=250e3714
DTITLE=Sippie Wallace, Peetie Wheatstraw - ABC Of The Blues - Vol. 48 
DTITLE=Wallace, Wheatstraw
DYEAR=2010
DGENRE=Blues
TTITLE0=Sippie Wallace - I'm A Mighty Tight Woman
TTITLE1=Sippie Wallace - Murder's Gonna Be My Crime
TTITLE2=Sippie Wallace - Suitcase Blues
TTITLE3=Sippie Wallace - Special Delivery Blues
TTITLE4=Sippie Wallace - The Flood Blues
TTITLE5=Sippie Wallace - Dead Drunk Blues
TTITLE6=Sippie Wallace - A Man For Every Day In The Week
TTITLE7=Sippie Wallace - Jack Of Diamond Blues
TTITLE8=Sippie Wallace - A Jealous Woman Like Me
TTITLE9=Sippie Wallace - The Mail Train Blues
TTITLE10=Peetie Wheatstraw - Devil's Son-In-Law
TTITLE11=Peetie Wheatstraw - Shake That Thing
TTITLE12=Peetie Wheatstraw - Gangster's Blues
TTITLE13=Peetie Wheatstraw - Come Over And See Me
TTITLE14=Peetie Wheatstraw - Cake Alley
TTITLE15=Peetie Wheatstraw - Shack Bully Stomp
TTITLE16=Peetie Wheatstraw - Tight Time Project
TTITLE17=Peetie Wheatstraw - Working On The Project
TTITLE18=Peetie Wheatstraw - Weeping Willow Blues
TTITLE19=Peetie Wheatstraw - Peetie Wheatstraw Stomp
EXTD=
EXTT0=
EXTT1=
EXTT2=
EXTT3=
EXTT4=
EXTT5=
EXTT6=
EXTT7=
EXTT8=
EXTT9=
EXTT10=
EXTT11=
EXTT12=
EXTT13=
EXTT14=
EXTT15=
EXTT16=
EXTT17=
EXTT18=
EXTT19=
PLAYORDER=
